<svg xmlns="http://www.w3.org/2000/svg" width="19" height="19" viewBox="0 0 19 19">
  <g id="pexels" transform="translate(-33 -436)">
    <rect id="Rectangle_11" data-name="Rectangle 11" width="19" height="19" rx="5" transform="translate(33 436)" fill="none"/>
    <path id="pexels-svgrepo-com" d="M1.188,0A1.188,1.188,0,0,0,0,1.188V17.813A1.188,1.188,0,0,0,1.188,19H17.813A1.188,1.188,0,0,0,19,17.813V1.188A1.188,1.188,0,0,0,17.813,0ZM6.531,5.344H10.7a3.042,3.042,0,0,1,.5,6.044v2.268H6.531ZM7.719,6.531v5.938h2.295V10.241H10.7a1.855,1.855,0,1,0,0-3.71Z" transform="translate(33 436)"/>
  </g>
</svg>
