<svg xmlns="http://www.w3.org/2000/svg" viewBox="0 0 1000 765.27"><defs><style>.cls-1{fill:#ffab4c;}.cls-2{fill:#191a19;}</style></defs><g id="Layer_2" data-name="Layer 2"><g id="Layer_1-2" data-name="Layer 1"><path class="cls-1" d="M180.34,740.9c-2.92.18-5.83.27-8.76.27A142.82,142.82,0,0,1,29.23,598.87V311.46H75.55V575.55a181.61,181.61,0,0,0,53.69,129.19A184.26,184.26,0,0,0,180.34,740.9Z"/><path class="cls-2" d="M690.93,295V582.41A182.72,182.72,0,0,1,378.86,711.6a189.71,189.71,0,0,1-21.16-25.39l-12.24-17.67L333.2,686.21A186,186,0,0,1,312,711.6a182.43,182.43,0,0,1-207.22,36.16A184.31,184.31,0,0,1,53.68,711.6,181.66,181.66,0,0,1,0,582.41V295H162.59v0h40.53V582.41a20.27,20.27,0,0,1-40.53,0V335.57h-122V582.41a142.74,142.74,0,0,0,133.72,142c2.85.2,5.71.28,8.58.28A142.84,142.84,0,0,0,325.2,582.41V295h40.53V582.41a142.33,142.33,0,0,0,284.65,0V335.57H528.32V582.41a20.28,20.28,0,0,1-40.55,0V202.77h40.55V295Z"/><polygon class="cls-1" points="966.19 202.65 966.19 309.81 797.81 309.81 797.81 478.19 690.93 515.09 690.93 295 528.32 295 528.32 202.77 607.69 202.65 690.68 202.65 690.68 34.27 797.81 34.27 797.81 202.65 966.19 202.65"/><polygon class="cls-2" points="1000 169.6 1000 344.08 830.4 344.08 830.4 515.01 690.93 515.09 797.81 478.19 797.81 309.81 966.19 309.81 966.19 202.65 797.81 202.65 797.81 34.27 690.68 34.27 690.68 202.65 607.69 202.65 528.32 202.77 655.9 170.63 655.9 0 830.4 0 830.4 169.6 1000 169.6"/></g></g></svg>